<?xml version="1.0" encoding="UTF-8" standalone="no"?>
<!-- Generator: Adobe Illustrator 16.0.0, SVG Export Plug-In . SVG Version: 6.00 Build 0)  -->

<svg
   xmlns:dc="http://purl.org/dc/elements/1.1/"
   xmlns:cc="http://creativecommons.org/ns#"
   xmlns:rdf="http://www.w3.org/1999/02/22-rdf-syntax-ns#"
   xmlns:svg="http://www.w3.org/2000/svg"
   xmlns="http://www.w3.org/2000/svg"
   xmlns:xlink="http://www.w3.org/1999/xlink"
   xmlns:sodipodi="http://sodipodi.sourceforge.net/DTD/sodipodi-0.dtd"
   xmlns:inkscape="http://www.inkscape.org/namespaces/inkscape"
   version="1.1"
   id="Layer_1"
   x="0px"
   y="0px"
   width="500px"
   height="500.009px"
   viewBox="-50 -50.005 500 500.009"
   enable-background="new -50 -50.005 500 500.009"
   xml:space="preserve"
   sodipodi:docname="icon.svg"
   inkscape:version="0.92.3 (2405546, 2018-03-11)"
   inkscape:export-filename="C:\Users\deluxghost\Works\TF2CasualManager\icon\icon.png"
   inkscape:export-xdpi="49.151115"
   inkscape:export-ydpi="49.151115"><metadata
   id="metadata4566"><rdf:RDF><cc:Work
       rdf:about=""><dc:format>image/svg+xml</dc:format><dc:type
         rdf:resource="http://purl.org/dc/dcmitype/StillImage" /><dc:title></dc:title></cc:Work></rdf:RDF></metadata><defs
   id="defs4564" /><sodipodi:namedview
   pagecolor="#4b6b1c"
   bordercolor="#666666"
   borderopacity="1"
   objecttolerance="10"
   gridtolerance="10"
   guidetolerance="10"
   inkscape:pageopacity="1"
   inkscape:pageshadow="2"
   inkscape:window-width="1920"
   inkscape:window-height="1026"
   id="namedview4562"
   showgrid="false"
   inkscape:zoom="0.84498479"
   inkscape:cx="244.19043"
   inkscape:cy="165.16883"
   inkscape:window-x="-8"
   inkscape:window-y="23"
   inkscape:window-maximized="1"
   inkscape:current-layer="Layer_1" />
<linearGradient
   id="SVGID_1_"
   gradientUnits="userSpaceOnUse"
   x1="255.3994"
   y1="-433.8438"
   x2="144.5989"
   y2="53.8451"
   gradientTransform="matrix(1 0 0 -1 0 10)">
	<stop
   offset="0"
   style="stop-color:#5D1F0E"
   id="stop4543" />
	<stop
   offset="1"
   style="stop-color:#D09737"
   id="stop4545" />
</linearGradient>
<path
   d="M 251.17712,0.18857284 C 340.30487,22.950366 406.21302,103.77597 406.21302,199.99826 c 0,2.19493 -0.047,4.38079 -0.11795,6.5584 L 267.39537,186.8295 C 263.33544,165.9294 249.7988,148.42769 231.43676,138.95096 Z M 138.9527,168.55655 c 9.4759,-18.36203 26.97844,-31.89703 47.87689,-35.95777 L 206.56005,-6.1025732 c -2.18008,-0.06846 -4.36347,-0.114655 -6.56005,-0.114655 -96.22064,0 -177.045424,65.9040292 -199.8080415,155.0334182 z m 29.60642,92.48902 c -18.36039,-9.47673 -31.89703,-26.98092 -35.95696,-47.87854 L -6.0983635,193.43657 c -0.06846,2.18008 -0.114654,4.36594 -0.114654,6.56169 0,96.21735 65.9040345,177.04378 155.0325975,199.80639 z M 261.0473,231.4375 c -9.47755,18.36203 -26.97843,31.8962 -47.87936,35.95778 L 193.4383,406.10075 c 2.18009,0.0685 4.36512,0.11548 6.56088,0.11548 96.22147,0 177.04625,-65.90651 199.80556,-155.03507 z"
   id="path4548"
   style="fill:#f2f9e8;fill-opacity:0.96135265;stroke-width:0.82485205"
   inkscape:connector-curvature="0" />
<radialGradient
   id="SVGID_2_"
   cx="98.191902"
   cy="-198.356"
   r="425.98709"
   fx="92.7565"
   fy="-199.4834"
   gradientTransform="matrix(0.9774,0.2114,0.1266,-0.5851,-77.0301,-167.3707)"
   gradientUnits="userSpaceOnUse"
   xlink:href="#SVGID_1_">
	<stop
   offset="0"
   style="stop-color:#FFFFFF;stop-opacity:0"
   id="stop4550" />
	<stop
   offset="0.4657"
   style="stop-color:#FFFFFF;stop-opacity:0.0804"
   id="stop4552" />
	<stop
   offset="0.9861"
   style="stop-color:#FFFFFF;stop-opacity:0.2143"
   id="stop4554" />
	<stop
   offset="1"
   style="stop-color:#FFFFFF;stop-opacity:0"
   id="stop4556" />
</radialGradient>
<path
   d="M 251.17712,0.18857284 C 340.30487,22.950366 406.21302,103.77597 406.21302,199.99826 c 0,2.19493 -0.047,4.38079 -0.11795,6.5584 L 267.39537,186.8295 C 263.33544,165.9294 249.7988,148.42769 231.43676,138.95096 Z M 138.9527,168.55655 c 9.4759,-18.36203 26.97844,-31.89703 47.87689,-35.95777 L 206.56005,-6.1025732 c -2.18008,-0.06846 -4.36347,-0.114655 -6.56005,-0.114655 -96.22064,0 -177.045424,65.9040292 -199.8080415,155.0334182 z m 29.60642,92.48902 c -18.36039,-9.47673 -31.89703,-26.98092 -35.95696,-47.87854 L -6.0983635,193.43657 c -0.06846,2.18008 -0.114654,4.36594 -0.114654,6.56169 0,96.21735 65.9040345,177.04378 155.0325975,199.80639 z M 261.0473,231.4375 c -9.47755,18.36203 -26.97843,31.8962 -47.87936,35.95778 L 193.4383,406.10075 c 2.18009,0.0685 4.36512,0.11548 6.56088,0.11548 96.22147,0 177.04625,-65.90651 199.80556,-155.03507 z"
   id="path4559"
   style="fill:#ffffff;fill-opacity:0;stroke-width:0.82485205"
   inkscape:connector-curvature="0" />
</svg>